<?xml version="1.0" encoding="utf-8"?>
<!-- Generator: Adobe Illustrator 16.0.4, SVG Export Plug-In . SVG Version: 6.00 Build 0)  -->
<!DOCTYPE svg PUBLIC "-//W3C//DTD SVG 1.1//EN" "http://www.w3.org/Graphics/SVG/1.1/DTD/svg11.dtd">
<svg version="1.1" id="Layer_1" xmlns="http://www.w3.org/2000/svg" xmlns:xlink="http://www.w3.org/1999/xlink" x="0px" y="0px"
	 width="200px" height="200px" viewBox="0 0 200 200" enable-background="new 0 0 200 200" xml:space="preserve">
<g>
	<g>
		<path fill="#F89F5E" d="M74.354,123.674l57.138-57.569l13.833,13.834l2.776-1.799l48.24,48.25
			c2.313-8.431,3.569-17.298,3.569-26.466c0-55.201-44.747-99.946-99.948-99.946c-55.199,0-99.946,44.745-99.946,99.946
			c0,55.2,44.748,99.947,99.946,99.947c3.396,0,6.751-0.174,10.062-0.506l-78.727-78.718L74.354,123.674z"/>
		<path fill="#D8774E" d="M196.342,126.391l-48.24-48.25l-2.776,1.799l-13.833-13.834l-57.138,57.569l-43.056-3.025l78.727,78.718
			C151.568,195.215,185.594,165.616,196.342,126.391z"/>
	</g>
	<g>
		<path fill="#7B4025" d="M131.4,110.641c0,10.411-8.438,18.849-18.849,18.849H84.073c-10.41,0-18.849-8.438-18.849-18.849V66.244
			H131.4V110.641z"/>
		<path fill="#7B4025" d="M135.169,72.109c-9.713,0-17.588,7.875-17.588,17.591c0,9.715,7.875,17.592,17.588,17.592
			c9.718,0,17.592-7.877,17.592-17.592C152.761,79.984,144.887,72.109,135.169,72.109z M135.169,100.915
			c-6.193,0-11.214-5.021-11.214-11.214c0-6.195,5.021-11.215,11.214-11.215s11.214,5.02,11.214,11.215
			C146.383,95.894,141.362,100.915,135.169,100.915z"/>
		<path fill="#7B4025" d="M98.311,120.693H31.298c0,0,6.703,8.796,27.642,8.796h78.731c20.942,0,27.653-8.796,27.653-8.796H98.311z"
			/>
	</g>
</g>
</svg>
