<?xml version="1.0" encoding="utf-8"?>
<!-- Generator: Adobe Illustrator 16.0.4, SVG Export Plug-In . SVG Version: 6.00 Build 0)  -->
<!DOCTYPE svg PUBLIC "-//W3C//DTD SVG 1.1//EN" "http://www.w3.org/Graphics/SVG/1.1/DTD/svg11.dtd">
<svg version="1.1" id="Layer_1" xmlns="http://www.w3.org/2000/svg" xmlns:xlink="http://www.w3.org/1999/xlink" x="0px" y="0px"
	 width="200px" height="200px" viewBox="0 0 200 200" enable-background="new 0 0 200 200" xml:space="preserve">
<g>
	<g>
		<path fill="#87CEB5" d="M36.421,108.082L26.028,97.686l116.962-3.113l31.07-3.117l24.705,22.108
			c0.604-4.439,0.943-8.959,0.943-13.564c0-55.067-44.641-99.709-99.71-99.709C44.931,0.291,0.29,44.933,0.29,100
			c0,51.609,39.208,94.058,89.464,99.187L35.86,145.291L36.421,108.082z"/>
		<path fill="#73B09C" d="M198.766,113.564l-24.705-22.108l-31.07,3.117L26.028,97.686l10.394,10.396l-0.562,37.209l53.895,53.896
			c3.371,0.344,6.785,0.521,10.244,0.521C150.465,199.709,192.146,162.211,198.766,113.564z"/>
	</g>
	<g>
		<rect x="25.94" y="91.456" fill="#3B6458" width="148.12" height="6.233"/>
		<polygon fill="#3B6458" points="134.907,91.456 144.156,85.806 153.412,91.456 		"/>
		<rect x="142.99" y="67.298" fill="#3B6458" width="2.336" height="24.158"/>
		<circle fill="#3B6458" cx="144.063" cy="67.298" r="2.338"/>
		
			<rect x="135.99" y="45.795" transform="matrix(0.8009 -0.5988 0.5988 0.8009 -7.347 93.6521)" fill="#3B6458" width="2.336" height="24.158"/>
		<polygon fill="#3B6458" points="129.86,61.475 129.86,49.562 123.519,46.114 112.317,51.377 		"/>
		<path fill="#3B6458" d="M129.041,51.011c-0.749,1.05-2.213,1.296-3.262,0.544l-2.14-1.528c-1.05-0.752-1.294-2.21-0.545-3.261
			l1.985-2.774c0.748-1.052,2.208-1.295,3.258-0.545l2.142,1.529c1.047,0.751,1.293,2.209,0.545,3.26L129.041,51.011z"/>
		<path fill="#3B6458" d="M35.782,97.689v47.68h40.397v-47.68H35.782z M55.98,126.371c-1.864,0-3.376-1.51-3.376-3.377
			c0-1.863,1.512-3.375,3.376-3.375c1.867,0,3.378,1.512,3.378,3.375C59.359,124.861,57.847,126.371,55.98,126.371z M55.98,108.035
			c-1.836,0-3.326-1.492-3.326-3.334c0-1.84,1.49-3.33,3.326-3.33c1.838,0,3.329,1.49,3.329,3.33
			C59.309,106.543,57.819,108.035,55.98,108.035z"/>
	</g>
	<polygon fill="#73B09C" points="44.817,91.456 112.317,51.377 129.86,61.475 134.907,91.456 	"/>
	<path fill="#3B6458" d="M125.127,97.689v47.68h40.4v-47.68H125.127z M145.326,126.371c-1.862,0-3.374-1.51-3.374-3.377
		c0-1.863,1.512-3.375,3.374-3.375c1.867,0,3.378,1.512,3.378,3.375C148.704,124.861,147.193,126.371,145.326,126.371z
		 M145.326,108.035c-1.836,0-3.326-1.492-3.326-3.334c0-1.84,1.49-3.33,3.326-3.33c1.841,0,3.331,1.49,3.331,3.33
		C148.657,106.543,147.167,108.035,145.326,108.035z"/>
</g>
</svg>
