<?xml version="1.0" encoding="utf-8"?>
<!-- Generator: Adobe Illustrator 16.0.4, SVG Export Plug-In . SVG Version: 6.00 Build 0)  -->
<!DOCTYPE svg PUBLIC "-//W3C//DTD SVG 1.1//EN" "http://www.w3.org/Graphics/SVG/1.1/DTD/svg11.dtd">
<svg version="1.1" id="Layer_1" xmlns="http://www.w3.org/2000/svg" xmlns:xlink="http://www.w3.org/1999/xlink" x="0px" y="0px"
	 width="200px" height="200px" viewBox="0 0 200 200" enable-background="new 0 0 200 200" xml:space="preserve">
<g>
	<g>
		<path fill="#FFF682" d="M67.557,145.246l-5.357-7.214l6.668-2.679l21.802-94.276l7.85,7.849l6.068-27.925l94.267,94.267
			c0.781-5.032,1.194-10.192,1.194-15.443c0-55.12-44.685-99.805-99.805-99.805c-55.12,0-99.803,44.686-99.803,99.805
			c0,47.252,32.848,86.806,76.948,97.141l-18.494-18.493L67.557,145.246z"/>
		<path fill="#E1D573" d="M198.855,115.269l-94.267-94.267l-6.068,27.925l-7.85-7.849l-21.802,94.276l-6.668,2.679l5.357,7.214
			l-8.662,33.227l18.494,18.493c7.342,1.722,14.988,2.66,22.855,2.66C150.111,199.626,191.433,163.056,198.855,115.269z"/>
	</g>
	<g>
		<path fill="#8E8848" d="M62.2,138.032c-1.013,0-1.841-1.646-1.841-3.671v-1.375c0-2.035,0.828-3.68,1.841-3.68h76.579
			c1.022,0,1.849,1.645,1.849,3.68v1.375c0,2.025-0.826,3.671-1.849,3.671H62.2z"/>
		<path fill="#8E8848" d="M105.804,176.064c0,2.025-1.831,3.676-4.084,3.676h-1.53c-2.258,0-4.091-1.65-4.091-3.676V23.579
			c0-2.029,1.833-3.676,4.091-3.676h1.53c2.253,0,4.084,1.646,4.084,3.676V176.064z"/>
		<path fill="#8E8848" d="M67.229,177.061c-0.324,1.778-2.393,2.954-4.618,2.622l-1.516-0.223c-2.219-0.327-3.761-2.039-3.439-3.813
			l24.436-133.62c0.323-1.781,2.392-2.958,4.62-2.625l1.513,0.223c2.226,0.33,3.767,2.041,3.441,3.82L67.229,177.061z"/>
		<path fill="#8E8848" d="M80.198,71.345c-0.524,0-0.946-1.646-0.946-3.676v-1.375c0-2.032,0.422-3.673,0.946-3.673h39.211
			c0.527,0,0.951,1.642,0.951,3.673v1.375c0,2.03-0.424,3.676-0.951,3.676H80.198z"/>
		<path fill="#8E8848" d="M70.081,146.304c-0.816,0-1.478-0.825-1.478-1.84v-0.687c0-1.012,0.662-1.837,1.478-1.837h61.065
			c0.808,0,1.468,0.825,1.468,1.837v0.687c0,1.015-0.66,1.84-1.468,1.84H70.081z"/>
		<path fill="#8E8848" d="M134.666,177.061c0.324,1.778,2.394,2.954,4.616,2.622l1.516-0.223c2.221-0.327,3.763-2.039,3.442-3.813
			l-24.438-133.62c-0.322-1.781-2.39-2.958-4.619-2.625l-1.512,0.223c-2.225,0.33-3.766,2.041-3.441,3.82L134.666,177.061z"/>
	</g>
</g>
</svg>
