<?xml version="1.0" encoding="utf-8"?>
<!-- Generator: Adobe Illustrator 16.0.4, SVG Export Plug-In . SVG Version: 6.00 Build 0)  -->
<!DOCTYPE svg PUBLIC "-//W3C//DTD SVG 1.1//EN" "http://www.w3.org/Graphics/SVG/1.1/DTD/svg11.dtd">
<svg version="1.1" id="Layer_1" xmlns="http://www.w3.org/2000/svg" xmlns:xlink="http://www.w3.org/1999/xlink" x="0px" y="0px"
	 width="200px" height="200px" viewBox="0 0 200 200" enable-background="new 0 0 200 200" xml:space="preserve">
<g>
	<path fill="#E85A4F" d="M46.857,99.032L33.7,87.226l7.435,1.164l14.505-8.984L41.135,67.25h10.16l94.33-0.565l13.695,0.565
		l39.525,36.121c0.046-1.253,0.079-2.509,0.079-3.772c0-54.539-44.213-98.751-98.751-98.751S1.422,45.059,1.422,99.598
		c0,50.049,37.234,91.395,85.512,97.864l-61.748-60.707L46.857,99.032z"/>
	<path fill="#B0423A" d="M198.846,103.37L159.32,67.25l-13.695-0.565l-94.33,0.565h-10.16L55.64,79.406L41.135,88.39L33.7,87.226
		l13.157,11.806l-21.671,37.723l61.748,60.707c4.331,0.581,8.75,0.887,13.239,0.887C153.448,198.349,196.861,156.16,198.846,103.37z
		"/>
</g>
<rect x="44.998" y="87.226" fill="#F7CD31" width="3.717" height="12.372"/>
<rect x="66.346" y="87.226" fill="#F7CD31" width="3.717" height="12.372"/>
<path fill="#F7CD31" d="M100.282,88.39c0,0-46.028,0-61.662,0c-3.826,0-4.92-1.164-4.92-1.164S47.585,88.39,54.254,75.59h46.028"/>
<rect x="60.789" y="67.25" fill="#F7CD31" width="3.394" height="9.737"/>
<rect x="87.695" y="87.226" fill="#F7CD31" width="3.717" height="12.372"/>
<path fill="#F7CD31" d="M41.135,67.25c0,0,2.624,1.629,7.653,1.629c12.901,0,51.494,0,51.494,0V55.226H61.397
	C61.397,55.226,59.356,67.25,41.135,67.25z"/>
<rect x="70.258" y="67.25" fill="#F7CD31" width="3.395" height="9.737"/>
<rect x="79.729" y="67.25" fill="#F7CD31" width="3.393" height="9.737"/>
<path fill="#F7CD31" d="M61.397,55.217c0.397-1.82-0.272-2.827,0.178-5.576c0.333-2.033,0.417,1.014,1.548,0.76
	c1.132-0.253,1.615-0.676,3.246,0.38c1.869,1.212-2.633-0.651-2.591,2.536c0.03,2.249,3.364,1.9,3.364,1.9s-1.846,2.083-3.65,1.502
	C61.689,56.137,61.397,55.217,61.397,55.217z"/>
<polyline fill="#F7CD31" points="155.457,99.598 155.457,87.226 151.741,87.226 151.741,99.598 "/>
<polyline fill="#F7CD31" points="134.109,99.598 134.109,87.226 130.393,87.226 130.393,99.598 "/>
<path fill="#F7CD31" d="M100.173,88.39c0,0,46.028,0,61.662,0c3.827,0,4.92-1.164,4.92-1.164S152.87,88.39,146.201,75.59h-46.028"/>
<rect x="98.612" y="67.25" fill="#F7CD31" width="3.395" height="9.737"/>
<polyline fill="#F7CD31" points="112.761,99.598 112.761,87.226 109.044,87.226 109.044,99.598 "/>
<path fill="#F7CD31" d="M159.32,67.25c0,0-2.623,1.629-7.652,1.629c-12.901,0-51.495,0-51.495,0V55.226h38.884
	C139.058,55.226,141.1,67.25,159.32,67.25z"/>
<rect x="89.143" y="67.25" fill="#F7CD31" width="3.394" height="9.737"/>
<path fill="#F7CD31" d="M139.058,55.217c-0.396-1.82,0.272-2.827-0.178-5.576c-0.333-2.033-0.417,1.014-1.548,0.76
	c-1.132-0.253-1.614-0.676-3.245,0.38c-1.871,1.212,2.631-0.651,2.589,2.536c-0.028,2.249-3.363,1.9-3.363,1.9
	s1.848,2.083,3.65,1.502C138.767,56.137,139.058,55.217,139.058,55.217z"/>
<g>
	<path fill="#F7CD31" d="M175.405,97.747c-1.25,0-1.25-2-2.5-2c-1.251,0-1.251,2-2.501,2c-1.252,0-1.252-2-2.503-2s-1.251,2-2.503,2
		c-1.25,0-1.25-2-2.501-2c-1.25,0-1.25,2-2.5,2c-1.249,0-1.249-2-2.499-2s-1.25,2-2.499,2s-1.249-2-2.499-2s-1.25,2-2.5,2
		s-1.25-2-2.501-2s-1.251,2-2.502,2c-1.252,0-1.252-2-2.504-2c-1.251,0-1.251,2-2.503,2c-1.251,0-1.251-2-2.502-2
		c-1.25,0-1.25,2-2.5,2s-1.25-2-2.501-2s-1.251,2-2.501,2c-1.251,0-1.251-2-2.502-2c-1.252,0-1.252,2-2.503,2
		c-1.252,0-1.252-2-2.504-2c-1.251,0-1.251,2-2.503,2c-1.251,0-1.251-2-2.502-2c-1.25,0-1.25,2-2.501,2s-1.251-2-2.503-2
		s-1.252,2-2.504,2s-1.252-2-2.504-2s-1.252,2-2.503,2s-1.251-2-2.503-2s-1.252,2-2.503,2c-1.252,0-1.252-2-2.505-2
		c-1.252,0-1.252,2-2.503,2s-1.251-2-2.503-2c-1.252,0-1.252,2-2.504,2c-1.252,0-1.252-2-2.505-2c-1.252,0-1.252,2-2.504,2
		s-1.252-2-2.504-2s-1.252,2-2.505,2c-1.25,0-1.25-2-2.501-2c-1.25,0-1.25,2-2.499,2c-1.25,0-1.25-2-2.5-2c-1.252,0-1.252,2-2.505,2
		c-1.252,0-1.252-2-2.504-2c-1.251,0-1.251,2-2.502,2c-1.252,0-1.252-2-2.503-2c-1.253,0-1.253,2-2.506,2c-1.252,0-1.252-2-2.503-2
		c-1.253,0-1.253,2-2.507,2c-1.252,0-1.252-2-2.505-2c-1.254,0-1.254,2-2.508,2c-1.253,0-1.253-2-2.506-2c-1.253,0-1.253,2-2.507,2
		s-1.254-2-2.508-2c-1.251,0-1.251,2-2.503,2c-1.253,0-1.253-2-2.506-2c-1.255,0-1.255,2-2.509,2s-1.254-2-2.509-2s-1.255,2-2.51,2
		c-1.257,0-1.257-2-2.514-2s-1.257,2-2.514,2l0,0v-2v2v-2v2v-2v2v-2v2v-2v2v-2v2v-2v2v-2v2v-2v2v-2v2v-2v2v-2v2v-2v2v-2v2v-2v2v-2v2
		v-2v2v-2v2v-2v2v-2v2v-2v2v-2v2v-2v2v-2v2v-2v2v-2v2v-2v2v-2v2v-2v2v-2c1.25,0,1.25,2,2.5,2c1.251,0,1.251-2,2.501-2
		c1.251,0,1.251,2,2.503,2s1.251-2,2.502-2s1.251,2,2.501,2c1.25,0,1.25-2,2.5-2c1.25,0,1.25,2,2.5,2c1.25,0,1.25-2,2.499-2
		s1.25,2,2.499,2c1.25,0,1.25-2,2.5-2c1.25,0,1.25,2,2.501,2c1.251,0,1.251-2,2.502-2c1.252,0,1.252,2,2.504,2
		c1.251,0,1.251-2,2.502-2c1.25,0,1.25,2,2.501,2c1.25,0,1.25-2,2.501-2c1.25,0,1.25,2,2.5,2c1.25,0,1.25-2,2.501-2
		c1.251,0,1.251,2,2.502,2c1.252,0,1.252-2,2.504-2s1.252,2,2.504,2c1.251,0,1.251-2,2.502-2c1.25,0,1.25,2,2.501,2s1.251-2,2.502-2
		s1.251,2,2.502,2c1.252,0,1.252-2,2.504-2s1.252,2,2.504,2c1.251,0,1.251-2,2.502-2s1.251,2,2.503,2s1.251-2,2.503-2
		c1.253,0,1.253,2,2.505,2s1.252-2,2.504-2s1.252,2,2.503,2c1.253,0,1.253-2,2.505-2s1.252,2,2.505,2c1.251,0,1.251-2,2.503-2
		s1.252,2,2.505,2s1.253-2,2.505-2c1.25,0,1.25,2,2.501,2c1.249,0,1.249-2,2.499-2s1.25,2,2.501,2c1.252,0,1.252-2,2.504-2
		s1.252,2,2.504,2c1.251,0,1.251-2,2.502-2c1.252,0,1.252,2,2.504,2c1.253,0,1.253-2,2.507-2c1.252,0,1.252,2,2.503,2
		c1.253,0,1.253-2,2.507-2c1.252,0,1.252,2,2.505,2c1.254,0,1.254-2,2.508-2c1.253,0,1.253,2,2.506,2s1.253-2,2.507-2
		s1.254,2,2.509,2c1.251,0,1.251-2,2.503-2c1.254,0,1.254,2,2.507,2c1.255,0,1.255-2,2.509-2c1.255,0,1.255,2,2.51,2s1.255-2,2.51-2
		c1.257,0,1.257,2,2.514,2c1.258,0,1.258-2,2.515-2V97.747v-2V97.747v-2V97.747v-2V97.747v-2V97.747v-2V97.747v-2V97.747v-2V97.747
		v-2V97.747v-2V97.747v-2V97.747v-2V97.747v-2V97.747v-2V97.747v-2V97.747v-2V97.747v-2V97.747v-2V97.747v-2V97.747v-2V97.747v-2
		V97.747v-2V97.747v-2V97.747v-2V97.747v-2V97.747v-2V97.747v-2V97.747v-2V97.747v-2V97.747v-2l-1,1
		C174.405,97.247,175.405,97.747,175.405,97.747z"/>
</g>
<rect x="108.083" y="67.25" fill="#F7CD31" width="3.394" height="9.737"/>
<rect x="117.552" y="67.25" fill="#F7CD31" width="3.394" height="9.737"/>
<rect x="136.437" y="67.25" fill="#F7CD31" width="3.394" height="9.737"/>
<rect x="126.968" y="67.25" fill="#F7CD31" width="3.394" height="9.737"/>
<path fill="#F7CD31" d="M25.186,96.339v40.416H44.33c-0.002-0.078-0.011-0.155-0.011-0.233v-5.817
	c0-6.04,4.601-10.938,10.277-10.938c5.675,0,10.277,4.898,10.277,10.938v5.817c0,0.078-0.009,0.155-0.011,0.233h21.495v-8.146
	c0-7.711,5.874-13.963,13.12-13.963h1.639c7.245,0,13.12,6.252,13.12,13.963v8.146h21.495c-0.002-0.078-0.011-0.155-0.011-0.233
	v-5.817c0-6.04,4.6-10.938,10.276-10.938c5.676,0,10.277,4.898,10.277,10.938v5.817c0,0.078-0.009,0.155-0.011,0.233h19.143V96.339
	H25.186z M95.865,110.225V99.598h8.889v10.627"/>
</svg>
